<svg width="20" height="20" viewBox="0 0 20 20" fill="none" xmlns="http://www.w3.org/2000/svg">
<g clip-path="url(#clip0_7173_23481)">
<path d="M20 10C20 15.5228 15.5228 20 10 20C4.47719 20 0 15.5228 0 10C0 10.0023 10 0.00113281 10 0C15.5228 0 20 4.47719 20 10Z" fill="#475569"/>
<path d="M9.97314 9.9999H9.9999C9.9999 9.99084 9.9999 9.98217 9.9999 9.97314C9.991 9.98209 9.98209 9.991 9.97314 9.9999Z" fill="#F0F0F0"/>
<path d="M10 5.21763C10 3.45806 10 2.30505 10 0.000244141H9.99832C4.47625 0.00114258 0 4.4779 0 10.0002H5.21738V7.06224L8.15535 10.0002H9.97328C9.98223 9.9913 9.99113 9.98239 10 9.97345C10 9.29974 10 8.6986 10 8.15563L7.06203 5.21763H10Z" fill="#F0F0F0"/>
<path d="M5.05917 1.30444C3.49514 2.19503 2.19491 3.49526 1.30432 5.05929V10.0001H3.91303V3.91319V3.91315H9.99999C9.99999 3.09038 9.99999 2.30655 9.99999 1.30444H5.05917Z" fill="#D80027"/>
<path d="M9.99986 8.77036L6.44701 5.21755H5.21729C5.21729 5.21751 5.21729 5.21755 5.21729 5.21755L9.99982 10.0001H9.99986C9.99986 10.0001 9.99986 9.15223 9.99986 8.77036Z" fill="#D80027"/>
<path d="M6.03107 11.7393L6.5799 12.8868L7.81924 12.6004L7.26424 13.745L8.26088 14.5354L7.01998 14.815L7.02346 16.0871L6.03107 15.2913L5.03873 16.0871L5.04221 14.815L3.80127 14.5354L4.79795 13.745L4.24287 12.6004L5.48228 12.8868L6.03107 11.7393Z" fill="#F0F0F0"/>
<path d="M14.972 13.9131L15.2464 14.4869L15.8661 14.3436L15.5886 14.9159L16.0869 15.3111L15.4665 15.451L15.4682 16.087L14.972 15.6891L14.4758 16.087L14.4775 15.451L13.8571 15.3111L14.3554 14.9159L14.0779 14.3436L14.6976 14.4869L14.972 13.9131Z" fill="#F0F0F0"/>
<path d="M12.4192 7.82617L12.6936 8.4L13.3133 8.25672L13.0358 8.82902L13.5341 9.22422L12.9137 9.36406L12.9154 10.0001L12.4192 9.60215L11.9231 10.0001L11.9248 9.36406L11.3043 9.22422L11.8026 8.82902L11.5251 8.25672L12.1448 8.4L12.4192 7.82617Z" fill="#F0F0F0"/>
<path d="M14.972 4.3479L15.2464 4.92173L15.8661 4.77849L15.5886 5.35079L16.0869 5.74595L15.4665 5.88583L15.4682 6.52185L14.972 6.12392L14.4758 6.52185L14.4775 5.88583L13.8571 5.74595L14.3554 5.35079L14.0779 4.77849L14.6976 4.92173L14.972 4.3479Z" fill="#F0F0F0"/>
<path d="M17.202 6.95654L17.4763 7.53037L18.096 7.38709L17.8185 7.95939L18.3168 8.35459L17.6964 8.49447L17.6981 9.13045L17.202 8.73256L16.7058 9.13045L16.7075 8.49447L16.087 8.35459L16.5854 7.95939L16.3079 7.38709L16.9275 7.53037L17.202 6.95654Z" fill="#F0F0F0"/>
<path d="M15.6073 10L15.8232 10.6643H16.5217L15.9565 11.0749L16.1724 11.7391L15.6073 11.3286L15.0423 11.7391L15.2581 11.0749L14.693 10.6643H15.3915L15.6073 10Z" fill="#F0F0F0"/>
</g>
<defs>
<clipPath id="clip0_7173_23481">
<rect width="20" height="20" fill="white"/>
</clipPath>
</defs>
</svg>
