<svg width="20" height="20" viewBox="0 0 20 20" fill="none" xmlns="http://www.w3.org/2000/svg">
<path d="M18.75 15.9375H17.8125V7.50001C17.8125 7.0856 17.6479 6.68818 17.3549 6.39515C17.0618 6.10213 16.6644 5.93751 16.25 5.93751H13.4375V2.50001C13.4374 2.23735 13.3711 1.97895 13.2447 1.7487C13.1183 1.51845 12.9359 1.32378 12.7144 1.18268C12.4928 1.04157 12.2393 0.958599 11.9772 0.941419C11.7151 0.924238 11.4529 0.973407 11.2148 1.08438L3.08984 4.87657C2.82055 5.00272 2.59271 5.20289 2.43293 5.4537C2.27315 5.70451 2.18803 5.9956 2.1875 6.29297V15.9375H1.25C1.00136 15.9375 0.762903 16.0363 0.587087 16.2121C0.411272 16.3879 0.3125 16.6264 0.3125 16.875C0.3125 17.1236 0.411272 17.3621 0.587087 17.5379C0.762903 17.7137 1.00136 17.8125 1.25 17.8125H18.75C18.9986 17.8125 19.2371 17.7137 19.4129 17.5379C19.5887 17.3621 19.6875 17.1236 19.6875 16.875C19.6875 16.6264 19.5887 16.3879 19.4129 16.2121C19.2371 16.0363 18.9986 15.9375 18.75 15.9375ZM15.9375 7.81251V15.9375H13.4375V7.81251H15.9375ZM4.0625 6.49141L11.5625 2.99219V15.9375H4.0625V6.49141ZM10.3125 8.75001V9.68751C10.3125 9.93615 10.2137 10.1746 10.0379 10.3504C9.8621 10.5262 9.62364 10.625 9.375 10.625C9.12636 10.625 8.8879 10.5262 8.71209 10.3504C8.53627 10.1746 8.4375 9.93615 8.4375 9.68751V8.75001C8.4375 8.50136 8.53627 8.26291 8.71209 8.08709C8.8879 7.91128 9.12636 7.81251 9.375 7.81251C9.62364 7.81251 9.8621 7.91128 10.0379 8.08709C10.2137 8.26291 10.3125 8.50136 10.3125 8.75001ZM7.1875 8.75001V9.68751C7.1875 9.93615 7.08873 10.1746 6.91291 10.3504C6.7371 10.5262 6.49864 10.625 6.25 10.625C6.00136 10.625 5.7629 10.5262 5.58709 10.3504C5.41127 10.1746 5.3125 9.93615 5.3125 9.68751V8.75001C5.3125 8.50136 5.41127 8.26291 5.58709 8.08709C5.7629 7.91128 6.00136 7.81251 6.25 7.81251C6.49864 7.81251 6.7371 7.91128 6.91291 8.08709C7.08873 8.26291 7.1875 8.50136 7.1875 8.75001ZM7.1875 12.8125V13.75C7.1875 13.9986 7.08873 14.2371 6.91291 14.4129C6.7371 14.5887 6.49864 14.6875 6.25 14.6875C6.00136 14.6875 5.7629 14.5887 5.58709 14.4129C5.41127 14.2371 5.3125 13.9986 5.3125 13.75V12.8125C5.3125 12.5639 5.41127 12.3254 5.58709 12.1496C5.7629 11.9738 6.00136 11.875 6.25 11.875C6.49864 11.875 6.7371 11.9738 6.91291 12.1496C7.08873 12.3254 7.1875 12.5639 7.1875 12.8125ZM10.3125 12.8125V13.75C10.3125 13.9986 10.2137 14.2371 10.0379 14.4129C9.8621 14.5887 9.62364 14.6875 9.375 14.6875C9.12636 14.6875 8.8879 14.5887 8.71209 14.4129C8.53627 14.2371 8.4375 13.9986 8.4375 13.75V12.8125C8.4375 12.5639 8.53627 12.3254 8.71209 12.1496C8.8879 11.9738 9.12636 11.875 9.375 11.875C9.62364 11.875 9.8621 11.9738 10.0379 12.1496C10.2137 12.3254 10.3125 12.5639 10.3125 12.8125Z" fill="#475569"/>
</svg>
