<svg width="24" height="24" viewBox="0 0 24 24" fill="none" xmlns="http://www.w3.org/2000/svg">
<path d="M21.3281 12C21.3281 12.2859 21.2145 12.5602 21.0123 12.7623C20.8102 12.9645 20.5359 13.0781 20.25 13.0781H3.75C3.46406 13.0781 3.18984 12.9645 2.98765 12.7623C2.78546 12.5602 2.67188 12.2859 2.67188 12C2.67188 11.7141 2.78546 11.4398 2.98765 11.2377C3.18984 11.0355 3.46406 10.9219 3.75 10.9219H20.25C20.5359 10.9219 20.8102 11.0355 21.0123 11.2377C21.2145 11.4398 21.3281 11.7141 21.3281 12ZM20.25 7.07812H3.75C3.46406 7.07812 3.18984 6.96454 2.98765 6.76235C2.78546 6.56016 2.67188 6.28594 2.67188 6C2.67188 5.71406 2.78546 5.43984 2.98765 5.23765C3.18984 5.03546 3.46406 4.92188 3.75 4.92188H20.25C20.5359 4.92188 20.8102 5.03546 21.0123 5.23765C21.2145 5.43984 21.3281 5.71406 21.3281 6C21.3281 6.28594 21.2145 6.56016 21.0123 6.76235C20.8102 6.96454 20.5359 7.07812 20.25 7.07812ZM3.75 16.9219H20.25C20.5359 16.9219 20.8102 17.0355 21.0123 17.2377C21.2145 17.4398 21.3281 17.7141 21.3281 18C21.3281 18.2859 21.2145 18.5602 21.0123 18.7623C20.8102 18.9645 20.5359 19.0781 20.25 19.0781H3.75C3.46406 19.0781 3.18984 18.9645 2.98765 18.7623C2.78546 18.5602 2.67188 18.2859 2.67188 18C2.67188 17.7141 2.78546 17.4398 2.98765 17.2377C3.18984 17.0355 3.46406 16.9219 3.75 16.9219Z" fill="#475569" stroke="#475569" stroke-width="0.09375"/>
</svg>
