<svg width="20" height="20" viewBox="0 0 20 20" fill="none" xmlns="http://www.w3.org/2000/svg">
<path d="M15.3507 11.8367C15.5269 12.0128 15.6258 12.2517 15.6258 12.5008C15.6258 12.7499 15.5269 12.9887 15.3507 13.1648C15.1746 13.341 14.9358 13.4399 14.6867 13.4399C14.4376 13.4399 14.1987 13.341 14.0226 13.1648L13.125 12.2656V16.25C13.125 16.4986 13.0262 16.7371 12.8504 16.9129C12.6746 17.0887 12.4361 17.1875 12.1875 17.1875C11.9388 17.1875 11.7004 17.0887 11.5246 16.9129C11.3487 16.7371 11.25 16.4986 11.25 16.25V12.2656L10.3507 13.1656C10.1746 13.3417 9.93575 13.4407 9.68668 13.4407C9.43761 13.4407 9.19874 13.3417 9.02262 13.1656C8.8465 12.9895 8.74756 12.7506 8.74756 12.5016C8.74756 12.2525 8.8465 12.0136 9.02262 11.8375L11.5226 9.3375C11.6097 9.2501 11.7132 9.18075 11.8272 9.13344C11.9411 9.08612 12.0633 9.06176 12.1867 9.06176C12.3101 9.06176 12.4322 9.08612 12.5462 9.13344C12.6602 9.18075 12.7636 9.2501 12.8507 9.3375L15.3507 11.8367ZM12.5 2.8125C11.2024 2.81312 9.9292 3.16468 8.81517 3.82994C7.70114 4.49519 6.78778 5.44937 6.17184 6.59141C5.45451 6.51627 4.72939 6.588 4.04068 6.8022C3.35197 7.01641 2.71409 7.36861 2.16591 7.83734C1.61774 8.30608 1.17075 8.88152 0.852191 9.52862C0.533633 10.1757 0.350176 10.8809 0.313 11.6012C0.275825 12.3215 0.385711 13.0418 0.63596 13.7183C0.886209 14.3947 1.27158 15.0131 1.76859 15.5358C2.2656 16.0585 2.86383 16.4745 3.52683 16.7584C4.18983 17.0424 4.90371 17.1884 5.62496 17.1875H7.81246C8.0611 17.1875 8.29956 17.0887 8.47538 16.9129C8.65119 16.7371 8.74996 16.4986 8.74996 16.25C8.74996 16.0014 8.65119 15.7629 8.47538 15.5871C8.29956 15.4113 8.0611 15.3125 7.81246 15.3125H5.62496C4.72919 15.307 3.87095 14.9521 3.23297 14.3232C2.595 13.6944 2.22769 12.8414 2.20926 11.9458C2.19083 11.0502 2.52273 10.1828 3.13429 9.52824C3.74586 8.8737 4.58877 8.48375 5.48356 8.44141C5.36967 8.95311 5.3123 9.47577 5.31246 10C5.31246 10.2486 5.41124 10.4871 5.58705 10.6629C5.76287 10.8387 6.00132 10.9375 6.24996 10.9375C6.4986 10.9375 6.73706 10.8387 6.91288 10.6629C7.08869 10.4871 7.18746 10.2486 7.18746 10C7.18811 9.23149 7.35548 8.47228 7.67803 7.77474C8.00059 7.0772 8.47064 6.45794 9.05575 5.9597C9.64087 5.46146 10.3271 5.0961 11.0671 4.88883C11.8072 4.68156 12.5834 4.63731 13.3421 4.75914C14.1009 4.88097 14.8243 5.16597 15.4622 5.59449C16.1001 6.02301 16.6375 6.58483 17.0373 7.2412C17.437 7.89756 17.6896 8.63284 17.7775 9.39629C17.8655 10.1597 17.7868 10.9332 17.5468 11.6633C17.5083 11.7802 17.4932 11.9036 17.5024 12.0264C17.5115 12.1492 17.5448 12.269 17.6003 12.379C17.6557 12.4889 17.7323 12.5869 17.8256 12.6672C17.9189 12.7476 18.0271 12.8087 18.1441 12.8473C18.2611 12.8858 18.3845 12.9009 18.5073 12.8917C18.6301 12.8826 18.7499 12.8493 18.8598 12.7938C18.9697 12.7384 19.0677 12.6618 19.148 12.5685C19.2284 12.4752 19.2896 12.367 19.3281 12.25C19.6829 11.1702 19.7768 10.0216 19.602 8.89849C19.4272 7.77538 18.9886 6.70969 18.3224 5.7888C17.6561 4.86791 16.781 4.11805 15.769 3.60069C14.7569 3.08334 13.6366 2.81323 12.5 2.8125Z" fill="#475569"/>
</svg>
