<svg width="16" height="16" viewBox="0 0 16 16" fill="none" xmlns="http://www.w3.org/2000/svg">
<g clip-path="url(#clip0_7173_1280)">
<path d="M8 16C12.4183 16 16 12.4183 16 8C16 3.58172 12.4183 0 8 0C3.58172 0 0 3.58172 0 8C0 12.4183 3.58172 16 8 16Z" fill="#0052B4"/>
<path d="M8.00002 3.13043L8.25905 3.92759H9.09718L8.41908 4.42024L8.67811 5.2174L8.00002 4.72471L7.32189 5.2174L7.58093 4.42024L6.90283 3.92759H7.74099L8.00002 3.13043Z" fill="#FFDA44"/>
<path d="M4.55658 4.55668L5.30345 4.93718L5.89611 4.34456L5.76495 5.17237L6.5118 5.5529L5.68395 5.68403L5.55283 6.5119L5.1723 5.76506L4.34448 5.89621L4.93714 5.30356L4.55658 4.55668Z" fill="#FFDA44"/>
<path d="M3.13037 7.99999L3.92753 7.74096V6.9028L4.42015 7.58093L5.21734 7.3219L4.72462 7.99999L5.21734 8.67808L4.42015 8.41908L3.92753 9.09718V8.25902L3.13037 7.99999Z" fill="#FFDA44"/>
<path d="M4.55658 11.4433L4.93711 10.6964L4.34448 10.1038L5.17233 10.235L5.55279 9.48813L5.68395 10.316L6.51176 10.4471L5.76501 10.8276L5.89611 11.6554L5.30345 11.0628L4.55658 11.4433Z" fill="#FFDA44"/>
<path d="M8.00002 12.8696L7.74096 12.0724H6.90283L7.58096 11.5797L7.32189 10.7827L8.00002 11.2753L8.67811 10.7827L8.41908 11.5797L9.09718 12.0724H8.25902L8.00002 12.8696Z" fill="#FFDA44"/>
<path d="M11.4432 11.4433L10.6963 11.0628L10.1037 11.6555L10.2348 10.8276L9.48804 10.4471L10.3158 10.316L10.447 9.48813L10.8275 10.235L11.6553 10.1038L11.0626 10.6965L11.4432 11.4433Z" fill="#FFDA44"/>
<path d="M12.8695 7.99999L12.0723 8.25902V9.09718L11.5797 8.41905L10.7826 8.67808L11.2752 7.99999L10.7826 7.3219L11.5797 7.58093L12.0723 6.9028V7.74099L12.8695 7.99999Z" fill="#FFDA44"/>
<path d="M11.4432 4.55667L11.0627 5.30354L11.6553 5.8962L10.8274 5.76501L10.447 6.51186L10.3158 5.68401L9.48804 5.55286L10.2348 5.17236L10.1037 4.34457L10.6964 4.9372L11.4432 4.55667Z" fill="#FFDA44"/>
</g>
<defs>
<clipPath id="clip0_7173_1280">
<rect width="16" height="16" fill="white"/>
</clipPath>
</defs>
</svg>
