<svg width="16" height="16" viewBox="0 0 16 16" fill="none" xmlns="http://www.w3.org/2000/svg">
<path d="M8 1.25C6.66498 1.25 5.35994 1.64588 4.2499 2.38758C3.13987 3.12928 2.27471 4.18349 1.76382 5.41689C1.25292 6.65029 1.11925 8.00749 1.3797 9.31686C1.64015 10.6262 2.28303 11.829 3.22703 12.773C4.17104 13.717 5.37377 14.3598 6.68314 14.6203C7.99252 14.8808 9.34971 14.7471 10.5831 14.2362C11.8165 13.7253 12.8707 12.8601 13.6124 11.7501C14.3541 10.6401 14.75 9.33502 14.75 8C14.748 6.2104 14.0362 4.49466 12.7708 3.22922C11.5053 1.96378 9.78961 1.25199 8 1.25ZM8 12.9375C7.44737 12.2907 7.01569 11.5497 6.72563 10.75H9.27688C9.11181 11.2022 8.90246 11.6371 8.65188 12.0481C8.45906 12.3618 8.24105 12.6592 8 12.9375ZM6.34438 9.25C6.22063 8.42126 6.22063 7.57874 6.34438 6.75H9.65688C9.78063 7.57874 9.78063 8.42126 9.65688 9.25H6.34438ZM2.75 8C2.74998 7.57873 2.80098 7.15901 2.90188 6.75H4.82813C4.72396 7.58008 4.72396 8.41992 4.82813 9.25H2.90188C2.80098 8.84099 2.74998 8.42127 2.75 8ZM8 3.0625C8.55264 3.70928 8.98431 4.45026 9.27438 5.25H6.72438C6.88945 4.79776 7.0988 4.36294 7.34938 3.95187C7.54179 3.63827 7.75938 3.34084 8 3.0625ZM11.1706 6.75H13.0969C13.2994 7.57103 13.2994 8.42897 13.0969 9.25H11.1719C11.276 8.41992 11.276 7.58008 11.1719 6.75H11.1706ZM12.4688 5.25H10.8569C10.6317 4.49399 10.3058 3.77168 9.88813 3.1025C10.9595 3.51839 11.8659 4.27235 12.47 5.25H12.4688ZM6.11188 3.1025C5.69418 3.77168 5.36835 4.49399 5.14313 5.25H3.53C4.13408 4.27235 5.04054 3.51839 6.11188 3.1025ZM3.53 10.75H5.14313C5.36835 11.506 5.69418 12.2283 6.11188 12.8975C5.04054 12.4816 4.13408 11.7277 3.53 10.75ZM9.88813 12.8975C10.3058 12.2283 10.6317 11.506 10.8569 10.75H12.47C11.8659 11.7277 10.9595 12.4816 9.88813 12.8975Z" fill="#4F46E5"/>
</svg>
