<svg width="20" height="20" viewBox="0 0 20 20" fill="none" xmlns="http://www.w3.org/2000/svg">
<path d="M18.1844 10.7719C17.9143 10.565 17.6004 10.4231 17.2667 10.357C16.933 10.2909 16.5887 10.3024 16.2602 10.3906L13.4375 11.0359C13.4375 11.0031 13.4375 10.9703 13.4375 10.9375C13.4375 10.2745 13.1741 9.63857 12.7053 9.16973C12.2364 8.70089 11.6005 8.4375 10.9375 8.4375H7.02656C6.65717 8.43649 6.29124 8.50875 5.94995 8.65009C5.60867 8.79143 5.2988 8.99905 5.03828 9.26094L3.35938 10.9375H1.5625C1.1481 10.9375 0.750671 11.1021 0.457646 11.3951C0.16462 11.6882 0 12.0856 0 12.5L0 15.625C0 16.0394 0.16462 16.4368 0.457646 16.7299C0.750671 17.0229 1.1481 17.1875 1.5625 17.1875H9.375C9.45165 17.1875 9.52801 17.1781 9.60234 17.1594L14.6023 15.9094C14.6502 15.8976 14.6969 15.882 14.7422 15.8625L17.775 14.5703C17.793 14.5633 17.8102 14.5555 17.8273 14.5469C18.1665 14.3772 18.457 14.124 18.6713 13.8111C18.8856 13.4982 19.0168 13.1359 19.0525 12.7584C19.0882 12.3808 19.0273 12.0003 18.8754 11.6528C18.7235 11.3053 18.4857 11.0021 18.1844 10.7719ZM2.8125 15.3125H1.875V12.8125H2.8125V15.3125ZM17.0062 12.8602L14.0758 14.1102L9.25937 15.3125H4.6875V12.2656L6.36406 10.5891C6.45072 10.5015 6.5539 10.4319 6.66762 10.3844C6.78133 10.337 6.90334 10.3125 7.02656 10.3125H10.9375C11.1033 10.3125 11.2622 10.3783 11.3794 10.4956C11.4967 10.6128 11.5625 10.7717 11.5625 10.9375C11.5625 11.1033 11.4967 11.2622 11.3794 11.3794C11.2622 11.4967 11.1033 11.5625 10.9375 11.5625H8.75C8.50136 11.5625 8.2629 11.6613 8.08709 11.8371C7.91127 12.0129 7.8125 12.2514 7.8125 12.5C7.8125 12.7486 7.91127 12.9871 8.08709 13.1629C8.2629 13.3387 8.50136 13.4375 8.75 13.4375H11.25C11.3207 13.4375 11.3912 13.4297 11.4602 13.4141L16.6945 12.2102L16.7313 12.2008C16.7846 12.1863 16.8406 12.1842 16.8949 12.1948C16.9492 12.2055 17.0003 12.2284 17.0442 12.262C17.0882 12.2955 17.1239 12.3387 17.1484 12.3883C17.173 12.4378 17.1858 12.4924 17.1859 12.5477C17.1863 12.611 17.1699 12.6733 17.1383 12.7282C17.1068 12.7831 17.0612 12.8286 17.0062 12.8602ZM12.8125 7.8125C12.9478 7.81234 13.083 7.80347 13.2172 7.78594C13.4958 8.2798 13.9036 8.68854 14.3968 8.96836C14.8899 9.24818 15.45 9.38854 16.0168 9.3744C16.5837 9.36026 17.136 9.19214 17.6147 8.88807C18.0933 8.584 18.4801 8.15543 18.7338 7.64829C18.9874 7.14115 19.0983 6.57455 19.0546 6.0092C19.0108 5.44385 18.814 4.90107 18.4854 4.439C18.1567 3.97694 17.7085 3.61301 17.1888 3.38621C16.6691 3.15942 16.0974 3.0783 15.5352 3.15156C15.2649 2.67275 14.8732 2.27371 14.3994 1.99472C13.9257 1.71574 13.3867 1.56667 12.8369 1.56259C12.2871 1.5585 11.746 1.69953 11.2681 1.97145C10.7903 2.24336 10.3926 2.63653 10.1153 3.11127C9.83799 3.58601 9.69083 4.12551 9.68869 4.6753C9.68654 5.2251 9.82948 5.76573 10.1031 6.24262C10.3767 6.7195 10.7713 7.11577 11.247 7.39141C11.7227 7.66704 12.2627 7.8123 12.8125 7.8125ZM15.9375 5C16.1847 5 16.4264 5.07331 16.632 5.21066C16.8375 5.34801 16.9977 5.54324 17.0924 5.77165C17.187 6.00005 17.2117 6.25139 17.1635 6.49386C17.1152 6.73634 16.9962 6.95907 16.8214 7.13388C16.6466 7.3087 16.4238 7.42775 16.1814 7.47598C15.9389 7.52421 15.6876 7.49946 15.4591 7.40485C15.2307 7.31024 15.0355 7.15002 14.8982 6.94446C14.7608 6.7389 14.6875 6.49723 14.6875 6.25C14.6875 5.91848 14.8192 5.60054 15.0536 5.36612C15.288 5.1317 15.606 5 15.9375 5ZM12.8125 3.4375C13.0096 3.43741 13.2039 3.48394 13.3796 3.57328C13.5553 3.66262 13.7074 3.79224 13.8234 3.95156C13.259 4.46885 12.9048 5.17576 12.8281 5.9375H12.8125C12.481 5.9375 12.163 5.8058 11.9286 5.57138C11.6942 5.33696 11.5625 5.01902 11.5625 4.6875C11.5625 4.35598 11.6942 4.03804 11.9286 3.80362C12.163 3.5692 12.481 3.4375 12.8125 3.4375Z" fill="white"/>
</svg>
