<svg width="21" height="20" viewBox="0 0 21 20" fill="none" xmlns="http://www.w3.org/2000/svg">
<path d="M20.1875 11.875C20.1875 12.1236 20.0887 12.3621 19.9129 12.5379C19.7371 12.7137 19.4986 12.8125 19.25 12.8125H18.3125V13.75C18.3125 13.9986 18.2137 14.2371 18.0379 14.4129C17.8621 14.5887 17.6236 14.6875 17.375 14.6875C17.1264 14.6875 16.8879 14.5887 16.7121 14.4129C16.5363 14.2371 16.4375 13.9986 16.4375 13.75V12.8125H15.5C15.2514 12.8125 15.0129 12.7137 14.8371 12.5379C14.6613 12.3621 14.5625 12.1236 14.5625 11.875C14.5625 11.6264 14.6613 11.3879 14.8371 11.2121C15.0129 11.0363 15.2514 10.9375 15.5 10.9375H16.4375V10C16.4375 9.75136 16.5363 9.5129 16.7121 9.33709C16.8879 9.16127 17.1264 9.0625 17.375 9.0625C17.6236 9.0625 17.8621 9.16127 18.0379 9.33709C18.2137 9.5129 18.3125 9.75136 18.3125 10V10.9375H19.25C19.4986 10.9375 19.7371 11.0363 19.9129 11.2121C20.0887 11.3879 20.1875 11.6264 20.1875 11.875ZM4.875 5.9375H5.8125V6.875C5.8125 7.12364 5.91127 7.3621 6.08709 7.53791C6.2629 7.71373 6.50136 7.8125 6.75 7.8125C6.99864 7.8125 7.2371 7.71373 7.41291 7.53791C7.58873 7.3621 7.6875 7.12364 7.6875 6.875V5.9375H8.625C8.87364 5.9375 9.1121 5.83873 9.28791 5.66291C9.46373 5.4871 9.5625 5.24864 9.5625 5C9.5625 4.75136 9.46373 4.5129 9.28791 4.33709C9.1121 4.16127 8.87364 4.0625 8.625 4.0625H7.6875V3.125C7.6875 2.87636 7.58873 2.6379 7.41291 2.46209C7.2371 2.28627 6.99864 2.1875 6.75 2.1875C6.50136 2.1875 6.2629 2.28627 6.08709 2.46209C5.91127 2.6379 5.8125 2.87636 5.8125 3.125V4.0625H4.875C4.62636 4.0625 4.3879 4.16127 4.21209 4.33709C4.03627 4.5129 3.9375 4.75136 3.9375 5C3.9375 5.24864 4.03627 5.4871 4.21209 5.66291C4.3879 5.83873 4.62636 5.9375 4.875 5.9375ZM14.875 14.6875H14.5625V14.375C14.5625 14.1264 14.4637 13.8879 14.2879 13.7121C14.1121 13.5363 13.8736 13.4375 13.625 13.4375C13.3764 13.4375 13.1379 13.5363 12.9621 13.7121C12.7863 13.8879 12.6875 14.1264 12.6875 14.375V14.6875H12.375C12.1264 14.6875 11.8879 14.7863 11.7121 14.9621C11.5363 15.1379 11.4375 15.3764 11.4375 15.625C11.4375 15.8736 11.5363 16.1121 11.7121 16.2879C11.8879 16.4637 12.1264 16.5625 12.375 16.5625H12.6875V16.875C12.6875 17.1236 12.7863 17.3621 12.9621 17.5379C13.1379 17.7137 13.3764 17.8125 13.625 17.8125C13.8736 17.8125 14.1121 17.7137 14.2879 17.5379C14.4637 17.3621 14.5625 17.1236 14.5625 16.875V16.5625H14.875C15.1236 16.5625 15.3621 16.4637 15.5379 16.2879C15.7137 16.1121 15.8125 15.8736 15.8125 15.625C15.8125 15.3764 15.7137 15.1379 15.5379 14.9621C15.3621 14.7863 15.1236 14.6875 14.875 14.6875ZM17.8547 6.47109L6.97031 17.3547C6.6773 17.6476 6.27994 17.8122 5.86562 17.8122C5.4513 17.8122 5.05395 17.6476 4.76094 17.3547L3.14453 15.7391C2.99937 15.594 2.88422 15.4217 2.80566 15.2321C2.7271 15.0425 2.68666 14.8392 2.68666 14.634C2.68666 14.4287 2.7271 14.2255 2.80566 14.0359C2.88422 13.8463 2.99937 13.674 3.14453 13.5289L14.0289 2.64531C14.3219 2.35239 14.7193 2.18783 15.1336 2.18783C15.5479 2.18783 15.9453 2.35239 16.2383 2.64531L17.8547 4.26094C17.9998 4.40604 18.115 4.57831 18.1936 4.76793C18.2721 4.95754 18.3126 5.16077 18.3126 5.36602C18.3126 5.57126 18.2721 5.77449 18.1936 5.9641C18.115 6.15372 17.9998 6.32599 17.8547 6.47109ZM12.9219 8.75L11.75 7.57812L4.69141 14.6336L5.86328 15.8055L12.9219 8.75ZM16.3055 5.36641L15.1336 4.19453L13.0781 6.25L14.25 7.42188L16.3055 5.36641Z" fill="white"/>
</svg>
