<svg width="20" height="20" viewBox="0 0 20 20" fill="none" xmlns="http://www.w3.org/2000/svg">
<path d="M19.6875 11.875C19.6875 12.1236 19.5887 12.3621 19.4129 12.5379C19.2371 12.7137 18.9986 12.8125 18.75 12.8125H17.8125V13.75C17.8125 13.9986 17.7137 14.2371 17.5379 14.4129C17.3621 14.5887 17.1236 14.6875 16.875 14.6875C16.6264 14.6875 16.3879 14.5887 16.2121 14.4129C16.0363 14.2371 15.9375 13.9986 15.9375 13.75V12.8125H15C14.7514 12.8125 14.5129 12.7137 14.3371 12.5379C14.1613 12.3621 14.0625 12.1236 14.0625 11.875C14.0625 11.6264 14.1613 11.3879 14.3371 11.2121C14.5129 11.0363 14.7514 10.9375 15 10.9375H15.9375V10C15.9375 9.75136 16.0363 9.5129 16.2121 9.33709C16.3879 9.16127 16.6264 9.0625 16.875 9.0625C17.1236 9.0625 17.3621 9.16127 17.5379 9.33709C17.7137 9.5129 17.8125 9.75136 17.8125 10V10.9375H18.75C18.9986 10.9375 19.2371 11.0363 19.4129 11.2121C19.5887 11.3879 19.6875 11.6264 19.6875 11.875ZM4.375 5.9375H5.3125V6.875C5.3125 7.12364 5.41127 7.3621 5.58709 7.53791C5.7629 7.71373 6.00136 7.8125 6.25 7.8125C6.49864 7.8125 6.7371 7.71373 6.91291 7.53791C7.08873 7.3621 7.1875 7.12364 7.1875 6.875V5.9375H8.125C8.37364 5.9375 8.6121 5.83873 8.78791 5.66291C8.96373 5.4871 9.0625 5.24864 9.0625 5C9.0625 4.75136 8.96373 4.5129 8.78791 4.33709C8.6121 4.16127 8.37364 4.0625 8.125 4.0625H7.1875V3.125C7.1875 2.87636 7.08873 2.6379 6.91291 2.46209C6.7371 2.28627 6.49864 2.1875 6.25 2.1875C6.00136 2.1875 5.7629 2.28627 5.58709 2.46209C5.41127 2.6379 5.3125 2.87636 5.3125 3.125V4.0625H4.375C4.12636 4.0625 3.8879 4.16127 3.71209 4.33709C3.53627 4.5129 3.4375 4.75136 3.4375 5C3.4375 5.24864 3.53627 5.4871 3.71209 5.66291C3.8879 5.83873 4.12636 5.9375 4.375 5.9375ZM14.375 14.6875H14.0625V14.375C14.0625 14.1264 13.9637 13.8879 13.7879 13.7121C13.6121 13.5363 13.3736 13.4375 13.125 13.4375C12.8764 13.4375 12.6379 13.5363 12.4621 13.7121C12.2863 13.8879 12.1875 14.1264 12.1875 14.375V14.6875H11.875C11.6264 14.6875 11.3879 14.7863 11.2121 14.9621C11.0363 15.1379 10.9375 15.3764 10.9375 15.625C10.9375 15.8736 11.0363 16.1121 11.2121 16.2879C11.3879 16.4637 11.6264 16.5625 11.875 16.5625H12.1875V16.875C12.1875 17.1236 12.2863 17.3621 12.4621 17.5379C12.6379 17.7137 12.8764 17.8125 13.125 17.8125C13.3736 17.8125 13.6121 17.7137 13.7879 17.5379C13.9637 17.3621 14.0625 17.1236 14.0625 16.875V16.5625H14.375C14.6236 16.5625 14.8621 16.4637 15.0379 16.2879C15.2137 16.1121 15.3125 15.8736 15.3125 15.625C15.3125 15.3764 15.2137 15.1379 15.0379 14.9621C14.8621 14.7863 14.6236 14.6875 14.375 14.6875ZM17.3547 6.47109L6.47031 17.3547C6.1773 17.6476 5.77994 17.8122 5.36562 17.8122C4.9513 17.8122 4.55395 17.6476 4.26094 17.3547L2.64453 15.7391C2.49937 15.594 2.38422 15.4217 2.30566 15.2321C2.2271 15.0425 2.18666 14.8392 2.18666 14.634C2.18666 14.4287 2.2271 14.2255 2.30566 14.0359C2.38422 13.8463 2.49937 13.674 2.64453 13.5289L13.5289 2.64531C13.8219 2.35239 14.2193 2.18783 14.6336 2.18783C15.0479 2.18783 15.4453 2.35239 15.7383 2.64531L17.3547 4.26094C17.4998 4.40604 17.615 4.57831 17.6936 4.76793C17.7721 4.95754 17.8126 5.16077 17.8126 5.36602C17.8126 5.57126 17.7721 5.77449 17.6936 5.9641C17.615 6.15372 17.4998 6.32599 17.3547 6.47109ZM12.4219 8.75L11.25 7.57812L4.19141 14.6336L5.36328 15.8055L12.4219 8.75ZM15.8055 5.36641L14.6336 4.19453L12.5781 6.25L13.75 7.42188L15.8055 5.36641Z" fill="#475569"/>
</svg>
