<svg width="24" height="24" viewBox="0 0 24 24" fill="none" xmlns="http://www.w3.org/2000/svg">
<path d="M21.7628 20.2372L21.7625 20.2375L21.7679 20.2416L21.7689 20.2423C21.8681 20.3421 21.9469 20.4604 22.0007 20.5904C22.055 20.7215 22.0829 20.8619 22.0829 21.0037C22.0829 21.1456 22.055 21.286 22.0007 21.4171C21.9464 21.5481 21.8669 21.6672 21.7666 21.7675C21.6663 21.8678 21.5472 21.9473 21.4162 22.0016C21.2852 22.0559 21.1447 22.0838 21.0029 22.0838C20.861 22.0838 20.7206 22.0559 20.5895 22.0016C20.4585 21.9473 20.3394 21.8678 20.2391 21.7675L15.7832 17.3106L15.7541 17.2815L15.7215 17.3066C13.9914 18.6342 11.821 19.2541 9.65072 19.0404C7.48039 18.8267 5.47261 17.7954 4.03466 16.1558C2.59672 14.5162 1.83628 12.391 1.90762 10.2114C1.97895 8.03172 2.87671 5.9608 4.41879 4.41873C5.96086 2.87665 8.03178 1.97889 10.2114 1.90755C12.3911 1.83622 14.5163 2.59665 16.1559 4.0346C17.7955 5.47255 18.8267 7.48033 19.0404 9.65066C19.2541 11.821 18.6343 13.9913 17.3066 15.7215L17.2816 15.7541L17.3107 15.7831L21.7628 20.2372ZM4.07818 10.5V10.5C4.07993 12.2027 4.75708 13.8351 5.96102 15.039C7.16497 16.243 8.79737 16.9201 10.5 16.9219H10.5001C11.7702 16.9219 13.0118 16.5452 14.0679 15.8396C15.1239 15.1339 15.947 14.131 16.4331 12.9575C16.9192 11.7841 17.0463 10.4929 16.7985 9.24715C16.5507 8.00143 15.9391 6.85716 15.041 5.95904C14.1429 5.06093 12.9986 4.4493 11.7529 4.20151C10.5072 3.95372 9.21595 4.0809 8.04251 4.56696C6.86907 5.05301 5.86611 5.87612 5.16046 6.93219C4.45482 7.98826 4.07818 9.22987 4.07818 10.5Z" fill="#475569" stroke="#475569" stroke-width="0.09375"/>
</svg>
