<svg width="16" height="16" viewBox="0 0 16 16" fill="none" xmlns="http://www.w3.org/2000/svg">
<g clip-path="url(#clip0_7173_1250)">
<path d="M16 8C16 12.4183 12.4183 16 8 16C3.58175 16 0 12.4183 0 8C0 8.00187 8 0.00090625 8 0C12.4183 0 16 3.58175 16 8Z" fill="#0052B4"/>
<path d="M7.99988 0C7.99944 0 7.99897 6.25e-05 7.99854 6.25e-05L7.99988 0Z" fill="#F0F0F0"/>
<path d="M7.97852 7.99998H7.99992C7.99992 7.99273 7.99992 7.9858 7.99992 7.97858C7.9928 7.98573 7.98567 7.99286 7.97852 7.99998Z" fill="#F0F0F0"/>
<path d="M8 4.17415C8 2.76649 8 1.84409 8 0.000244141H7.99866C3.581 0.000962891 0 3.58237 0 8.00021H4.17391V5.64984L6.52428 8.00021H7.97862C7.98578 7.99309 7.99291 7.98596 8.00003 7.97881C8.00003 7.43984 8.00003 6.95893 8.00003 6.52456L5.64962 4.17415H8Z" fill="#F0F0F0"/>
<path d="M4.04733 1.04347C2.79611 1.75594 1.75593 2.79613 1.04346 4.04735V8H3.13043V3.13047V3.13044H7.99999C7.99999 2.47222 7.99999 1.84516 7.99999 1.04347H4.04733Z" fill="#D80027"/>
<path d="M7.99989 7.01623L5.15761 4.17398H4.17383C4.17383 4.17395 4.17383 4.17398 4.17383 4.17398L7.99986 8.00001H7.99989C7.99989 8.00001 7.99989 7.32173 7.99989 7.01623Z" fill="#D80027"/>
<path d="M4.82486 9.39133L5.26392 10.3094L6.25539 10.0802L5.81139 10.9959L6.6087 11.6282L5.61598 11.852L5.61877 12.8696L4.82486 12.2329L4.03098 12.8696L4.03377 11.852L3.04102 11.6282L3.83836 10.9959L3.3943 10.0802L4.38583 10.3094L4.82486 9.39133Z" fill="#F0F0F0"/>
<path d="M11.9776 11.1304L12.1971 11.5895L12.6929 11.4749L12.4708 11.9327L12.8695 12.2489L12.3732 12.3608L12.3745 12.8696L11.9776 12.5512L11.5807 12.8696L11.582 12.3608L11.0857 12.2489L11.4843 11.9327L11.2623 11.4749L11.7581 11.5895L11.9776 11.1304Z" fill="#F0F0F0"/>
<path d="M9.9354 6.26088L10.1549 6.71994L10.6506 6.60532L10.4286 7.06316L10.8273 7.37932L10.331 7.49119L10.3323 8L9.9354 7.68166L9.53846 8L9.5398 7.49119L9.04346 7.37932L9.44211 7.06316L9.22011 6.60532L9.71586 6.71994L9.9354 6.26088Z" fill="#F0F0F0"/>
<path d="M11.9776 3.47826L12.1971 3.93732L12.6929 3.82273L12.4709 4.28057L12.8695 4.59669L12.3732 4.7086L12.3745 5.21741L11.9776 4.89907L11.5807 5.21741L11.582 4.7086L11.0857 4.59669L11.4843 4.28057L11.2623 3.82273L11.7581 3.93732L11.9776 3.47826Z" fill="#F0F0F0"/>
<path d="M13.7616 5.56522L13.9811 6.02428L14.4768 5.90965L14.2548 6.3675L14.6535 6.68365L14.1571 6.79556L14.1585 7.30434L13.7616 6.98603L13.3646 7.30434L13.366 6.79556L12.8696 6.68365L13.2683 6.3675L13.0463 5.90965L13.542 6.02428L13.7616 5.56522Z" fill="#F0F0F0"/>
<path d="M12.4859 7.99998L12.6585 8.53142H13.2173L12.7652 8.85989L12.938 9.3913L12.4859 9.06286L12.0338 9.3913L12.2065 8.85989L11.7544 8.53142H12.3132L12.4859 7.99998Z" fill="#F0F0F0"/>
</g>
<defs>
<clipPath id="clip0_7173_1250">
<rect width="16" height="16" fill="white"/>
</clipPath>
</defs>
</svg>
