<svg width="12" height="12" viewBox="0 0 12 12" fill="none" xmlns="http://www.w3.org/2000/svg">
<path d="M11.4375 5.99998V8.99998C11.4375 9.14916 11.3782 9.29224 11.2727 9.39772C11.1672 9.50321 11.0242 9.56248 10.875 9.56248H7.87498C7.7258 9.56248 7.58272 9.50321 7.47723 9.39772C7.37174 9.29224 7.31248 9.14916 7.31248 8.99998C7.31248 8.85079 7.37174 8.70772 7.47723 8.60223C7.58272 8.49674 7.7258 8.43748 7.87498 8.43748H9.5156L6.37498 5.29685L4.89795 6.77435C4.84569 6.82679 4.78359 6.8684 4.71522 6.89679C4.64685 6.92518 4.57354 6.9398 4.49951 6.9398C4.42548 6.9398 4.35217 6.92518 4.2838 6.89679C4.21543 6.8684 4.15333 6.82679 4.10107 6.77435L0.726073 3.39935C0.620401 3.29368 0.561035 3.15036 0.561035 3.00091C0.561035 2.92692 0.57561 2.85365 0.603927 2.78528C0.632244 2.71692 0.67375 2.6548 0.726073 2.60248C0.778397 2.55015 0.840514 2.50865 0.908878 2.48033C0.977242 2.45201 1.05051 2.43744 1.12451 2.43744C1.27395 2.43744 1.41728 2.49681 1.52295 2.60248L4.49998 5.5781L5.97701 4.1006C6.02927 4.04816 6.09136 4.00655 6.15974 3.97816C6.22811 3.94977 6.30142 3.93516 6.37545 3.93516C6.44948 3.93516 6.52279 3.94977 6.59116 3.97816C6.65953 4.00655 6.72163 4.04816 6.77389 4.1006L10.3125 7.6406V5.99998C10.3125 5.85079 10.3717 5.70772 10.4772 5.60223C10.5827 5.49674 10.7258 5.43748 10.875 5.43748C11.0242 5.43748 11.1672 5.49674 11.2727 5.60223C11.3782 5.70772 11.4375 5.85079 11.4375 5.99998Z" fill="white"/>
</svg>
